#!OML:ASF I:\Actors\actors\Patient Classification 1\Patient 1\Session 1\Subject1.ASF
:FULLY-SPECIFIED
:DEGREES
421
root 0.657018 17.4719 8.95356 11.4961 4.03098 -8.21372
lowerback 3.85057 0.552331 5.30238
upperback -8.15202 1.45406 2.15386
thorax -10.8232 0.379044 -0.84155
lowerneck -16.3896 -5.38672 -4.82568
upperneck 23.0364 -8.58955 8.7823
head 10.732 -3.33862 2.72419
rclavicle -4.32357e-015 -9.14409e-015
rhumerus -52.8794 7.92557 -94.1312
rradius 101.896
rwrist -25.2901
rhand 3.91559 -52.821
rfingers 7.12502
rthumb 29.3351 -80.5266
lclavicle -4.32357e-015 -9.14409e-015
lhumerus -54.0355 -2.10972 98.6362
lradius 84.8443
lwrist 52.4167
lhand -28.3933 10.932
lfingers 7.12502
lthumb -1.76573 40.9044
rfemur -11.3547 16.96 23.17
rtibia 10.472
rfoot -14.1969 -24.5953
rtoes 2.68918
lfemur -8.56987 -27.3916 -3.99922
ltibia 2.52066
lfoot -9.40672 32.0454
ltoes -11.427
422
root 0.713335 17.4891 9.00837 10.195 3.46878 -8.15966
lowerback 3.97125 0.603739 5.20246
upperback -7.99667 1.52049 2.22626
thorax -10.7195 0.426826 -0.719421
lowerneck -16.2945 -5.30931 -4.81296
upperneck 23.713 -8.4911 8.55231
head 10.9421 -3.3066 2.66432
rclavicle -1.70706e-014 -2.32578e-014
rhumerus -54.7707 7.10744 -94.4703
rradius 101.985
rwrist -25.1697
rhand 3.85619 -53.5111
rfingers 7.12502
rthumb 29.2784 -81.2267
lclavicle -1.70706e-014 -2.32578e-014
lhumerus -55.8485 -1.04583 98.5511
lradius 85.0334
lwrist 52.4257
lhand -27.3077 11.5722
lfingers 7.12502
lthumb -0.717304 41.5508
rfemur -9.26173 17.6113 23.5616
rtibia 9.92431
rfoot -14.2372 -24.7881
rtoes 2.40909
lfemur -5.68718 -27.8765 -5.55324
ltibia 1.37249
lfoot -9.51951 32.5861
ltoes -10.8825
423
root 0.759048 17.4794 9.01943 10.0869 3.78747 -7.96952
lowerback 3.39846 0.403645 5.0726
upperback -8.31465 1.21574 2.26313
thorax -10.7501 0.287901 -0.560313
lowerneck -16.0882 -5.18282 -4.68941
upperneck 24.3504 -8.3425 8.29399
head 11.1076 -3.25014 2.58459
rclavicle 1.18153e-014 2.82274e-014
rhumerus -56.5073 6.42709 -94.7686
rradius 101.91
rwrist -25.0132
rhand 3.77693 -54.0179
rfingers 7.12502
rthumb 29.2027 -81.7466
lclavicle 1.18153e-014 2.82274e-014
lhumerus -57.4265 -0.135848 98.1996
lradius 85.1851
lwrist 52.6892
lhand -25.8685 12.7701
lfingers 7.12502
lthumb 0.672713 42.7488
rfemur -8.96944 17.8809 23.2658
rtibia 9.83298
rfoot -14.4922 -25.3944
rtoes 2.70597
lfemur -5.51792 -28.1166 -5.99412
ltibia 1.27489
lfoot -9.5267 32.3967
ltoes -10.5168
424
root 0.809824 17.4709 9.04086 9.82973 3.28385 -7.77665
lowerback 2.87141 0.430129 4.82811
upperback -8.52131 1.20531 2.30041
thorax -10.6676 0.304681 -0.376957
lowerneck -15.8988 -5.01492 -4.50824
upperneck 24.977 -8.12139 7.94874
head 11.2621 -3.16624 2.4734
rclavicle -5.92627e-015 2.5345e-014
rhumerus -58.1288 5.9864 -95.015
rradius 101.81
rwrist -24.9093
rhand 3.93202 -54.6331
rfingers 7.12502
rthumb 29.3508 -82.336
lclavicle -5.92627e-015 2.5345e-014
lhumerus -58.6989 0.634473 97.638
lradius 85.3094
lwrist 53.4138
lhand -24.1896 14.0517
lfingers 7.12502
lthumb 2.29427 44.0191
rfemur -8.69726 18.0604 22.9181
rtibia 10.0123
rfoot -14.6039 -25.1741
rtoes 2.42405
lfemur -4.49805 -28.5899 -6.91578
ltibia 0.780882
lfoot -9.72378 33.1444
ltoes -9.47901
425
root 0.867982 17.4725 9.06657 9.19316 3.91762 -7.25269
lowerback 2.60747 0.0624869 4.62341
upperback -8.61784 0.670482 2.22164
thorax -10.6378 0.0572476 -0.282229
lowerneck -15.7999 -4.87999 -4.32737
upperneck 25.6265 -7.93888 7.58707
head 11.4485 -3.09945 2.348
rclavicle 9.88954e-015 -1.0138e-014
rhumerus -59.632 5.67564 -95.2182
rradius 101.757
rwrist -24.8582
rhand 4.12927 -55.509
rfingers 7.12502
rthumb 29.5391 -83.1787
lclavicle 9.88954e-015 -1.0138e-014
lhumerus -59.6561 1.10063 96.9486
lradius 85.4465
lwrist 54.5849
lhand -22.9 15.0629
lfingers 7.12502
lthumb 3.53968 45.0132
rfemur -7.58178 18.0093 22.3886
rtibia 9.67259
rfoot -14.9142 -25.8632
rtoes 2.77095
lfemur -3.66793 -29.4234 -8.16625
ltibia 0.652068
lfoot -9.50769 33.0949
ltoes -9.51618
426
root 0.918399 17.4587 9.08113 9.21021 3.21601 -7.05403
lowerback 1.89742 0.189212 4.41976
upperback -8.86027 0.787087 2.20098
thorax -10.4775 0.130235 -0.200272
lowerneck -15.6738 -4.75753 -4.1967
upperneck 26.1598 -7.7956 7.39021
head 11.6012 -3.03879 2.28434
rclavicle 7.56624e-015 -2.88238e-014
rhumerus -60.913 5.48365 -95.4174
rradius 101.749
rwrist -24.9285
rhand 4.15072 -56.7757
rfingers 7.12502
rthumb 29.5596 -84.4418
lclavicle 7.56624e-015 -2.88238e-014
lhumerus -60.2905 1.1836 96.2481
lradius 85.52
lwrist 55.64
lhand -22.2925 15.5865
lfingers 7.12502
lthumb 4.12628 45.5263
rfemur -7.89251 17.9937 21.8513
rtibia 10.1589
rfoot -14.7897 -25.3544
rtoes 1.76725
lfemur -3.00567 -29.9423 -8.96471
ltibia 0.23052
lfoot -9.74475 34.1309
ltoes -8.39645
427
root 0.970197 17.4557 9.09954 8.80767 3.09885 -6.86289
lowerback 1.49418 0.110161 4.40101
upperback -8.94065 0.65411 2.18444
thorax -10.3296 0.0675249 -0.191947
lowerneck -15.5311 -4.62879 -4.0862
upperneck 26.5356 -7.62291 7.1972
head 11.6905 -2.97042 2.228
rclavicle -2.42269e-015 -8.44835e-015
rhumerus -61.9532 5.42138 -95.5716
rradius 101.834
rwrist -25.0847
rhand 4.15346 -58.2792
rfingers 7.12502
rthumb 29.5622 -85.9449
lclavicle -2.42269e-015 -8.44835e-015
lhumerus -60.5767 0.969755 95.6598
lradius 85.4198
lwrist 55.821
lhand -22.1151 15.5449
lfingers 7.12502
lthumb 4.29767 45.4813
rfemur -7.48724 17.8318 21.5633
rtibia 10.3577
rfoot -14.7835 -25.2472
rtoes 0.969056
lfemur -2.15276 -30.4507 -9.84474
ltibia 0.0133973
lfoot -10.1135 34.5325
ltoes -7.36392
428
root 1.0155 17.4473 9.11336 8.57022 2.85291 -6.81014
lowerback 0.965152 0.0796856 4.41324
upperback -9.03683 0.587602 2.24057
thorax -10.1231 0.0390422 -0.130936
lowerneck -15.5712 -4.53636 -4.01758
upperneck 27.0452 -7.47561 6.93454
head 11.8705 -2.91937 2.14687
rclavicle -8.81486e-015 -2.55935e-014
rhumerus -62.9081 5.47177 -95.6676
rradius 102.083
rwrist -25.0997
rhand 4.1249 -59.7386
rfingers 7.12502
rthumb 29.5349 -87.4091
lclavicle -8.81486e-015 -2.55935e-014
lhumerus -60.5681 0.606538 95.1738
lradius 85.1672
lwrist 55.0562
lhand -22.0926 14.6371
lfingers 7.12502
lthumb 4.31935 44.5731
rfemur -7.39735 17.678 21.391
rtibia 10.7644
rfoot -14.9079 -24.9425
rtoes 0.405694
lfemur -1.52022 -30.6219 -10.4134
ltibia -0.174536
lfoot -10.4898 34.7781
ltoes -6.50548
429
root 1.05602 17.4373 9.1207 8.34745 2.44995 -6.82174
lowerback 0.569454 0.0973158 4.40907
upperback -9.15079 0.596349 2.32365
thorax -10.015 0.0482454 -0.0393463
lowerneck -15.6749 -4.48489 -4.16162
upperneck 27.6003 -7.40733 6.93329
head 12.111 -2.8913 2.18719
rclavicle -5.99149e-015 1.45361e-015
rhumerus -63.8349 5.57911 -95.6837
rradius 102.443
rwrist -24.7727
rhand 4.30782 -60.8229
rfingers 7.12502
rthumb 29.7095 -88.4624
lclavicle -5.99149e-015 1.45361e-015
lhumerus -60.3563 0.144868 94.7038
lradius 84.8796
lwrist 53.8764
lhand -22.1698 13.3581
lfingers 7.12502
lthumb 4.24483 43.2955
rfemur -7.43035 17.5283 21.2822
rtibia 11.2931
rfoot -15.0544 -24.4774
rtoes 0.236605
lfemur -0.886872 -30.4901 -10.8747
ltibia -0.41063
lfoot -10.6798 34.9419
ltoes -6.23444
430
root 1.09203 17.4387 9.13033 7.73857 2.81642 -6.75695
lowerback 0.522891 -0.140804 4.40017
upperback -9.1644 0.277682 2.39094
thorax -10.014 -0.103609 0.0668157
lowerneck -15.2835 -4.31474 -3.59188
upperneck 27.4743 -7.11684 6.25704
head 11.9062 -2.79974 1.88634
rclavicle -7.63147e-015 1.13928e-014
rhumerus -64.6904 5.69762 -95.5523
rradius 102.864
rwrist -23.9281
rhand 4.95003 -60.9189
rfingers 7.12502
rthumb 30.3223 -88.4474
lclavicle -7.63147e-015 1.13928e-014
lhumerus -59.9476 -0.375464 94.202
lradius 84.6088
lwrist 52.793
lhand -22.1845 12.7851
lfingers 7.12502
lthumb 4.23065 42.7228
rfemur -6.63793 17.4642 21.3642
rtibia 11.3243
rfoot -15.2749 -24.814
rtoes 0.621872
lfemur -0.243801 -30.1463 -11.3349
ltibia -0.436535
lfoot -10.588 34.1668
ltoes -6.81405
431
root 1.12891 17.4399 9.13304 7.2409 3.40411 -6.72998
lowerback 0.444238 -0.411383 4.50394
upperback -9.21105 -0.0812232 2.41965
thorax -10.0335 -0.286791 0.0731781
lowerneck -14.7331 -4.1929 -2.45585
upperneck 27.1603 -6.88766 5.07383
head 11.562 -2.74693 1.29715
rclavicle 1.34055e-014 -4.67144e-015
rhumerus -65.4719 5.81094 -95.4252
rradius 103.315
rwrist -22.4105
rhand 5.73575 -60.0238
rfingers 7.12502
rthumb 31.0715 -87.4116
lclavicle 1.34055e-014 -4.67144e-015
lhumerus -59.3868 -0.924216 93.6148
lradius 84.3935
lwrist 52.0804
lhand -22.0482 12.822
lfingers 7.12502
lthumb 4.3622 42.7571
rfemur -5.98271 17.3001 21.4386
rtibia 11.3073
rfoot -15.4676 -25.2702
rtoes 0.821196
lfemur -0.0534515 -29.6716 -11.5401
ltibia -0.19187
lfoot -10.3896 33.0352
ltoes -7.68829
432
root 1.15572 17.4318 9.12772 7.19769 3.19943 -6.74988
lowerback 0.0801718 -0.392349 4.39781
upperback -9.37277 -0.074623 2.46681
thorax -9.99596 -0.273404 0.181433
lowerneck -14.4902 -4.17672 -2.05426
upperneck 27.2018 -6.85003 4.63248
head 11.4925 -2.74883 1.07767
rclavicle -1.90895e-014 4.88265e-014
rhumerus -66.2209 5.96194 -95.4762
rradius 103.675
rwrist -19.8945
rhand 6.02483 -58.7342
rfingers 7.12502
rthumb 31.347 -86.069
lclavicle -1.90895e-014 4.88265e-014
lhumerus -58.6844 -1.42879 92.9424
lradius 84.2292
lwrist 51.8081
lhand -21.9606 13.1057
lfingers 7.12502
lthumb 4.4468 43.039
rfemur -6.18911 17.3185 21.3254
rtibia 11.6443
rfoot -15.4523 -25.1867
rtoes 0.52482
lfemur -0.094493 -29.2041 -11.6028
ltibia -0.0463603
lfoot -10.356 32.6728
ltoes -7.81668
433
root 1.1761 17.4271 9.1272 7.09845 3.13714 -6.74743
lowerback -0.265109 -0.43435 4.18472
upperback -9.50391 -0.152078 2.55474
thorax -9.93609 -0.289451 0.399162
lowerneck -14.3902 -4.15147 -2.08072
upperneck 27.3717 -6.84132 4.69893
head 11.5414 -2.73838 1.11013
rclavicle -5.71506e-016 1.49089e-014
rhumerus -66.9851 6.33393 -95.7144
rradius 103.881
rwrist -16.4518
rhand 4.69241 -57.0631
rfingers 7.12502
rthumb 30.0765 -84.6365
lclavicle -5.71506e-016 1.49089e-014
lhumerus -57.7978 -1.79479 92.2544
lradius 84.0295
lwrist 51.8369
lhand -21.9704 13.3236
lfingers 7.12502
lthumb 4.43731 43.2571
rfemur -6.1475 17.4252 21.2869
rtibia 11.7741
rfoot -15.4437 -25.3044
rtoes 0.569482
lfemur -0.0588671 -28.8775 -11.6964
ltibia 0.0535939
lfoot -10.3337 32.3174
ltoes -7.66588
434
root 1.19871 17.421 9.12195 7.03797 2.94585 -6.81338
lowerback -0.520829 -0.394948 4.09539
upperback -9.63819 -0.106589 2.64274
thorax -9.93257 -0.256091 0.538994
lowerneck -14.1788 -4.14827 -2.04711
upperneck 27.1987 -6.81628 4.6307
head 11.4267 -2.74044 1.08705
rclavicle 3.926e-015 -2.9271e-014
rhumerus -67.6382 6.76909 -95.8342
rradius 103.937
rwrist -11.5527
rhand 3.37241 -55.3878
rfingers 7.12502
rthumb 28.8164 -83.183
lclavicle 3.926e-015 -2.9271e-014
lhumerus -56.7481 -2.14265 91.6144
lradius 83.7534
lwrist 51.7772
lhand -22.5332 13.273
lfingers 7.12502
lthumb 3.89387 43.2171
rfemur -6.22282 17.3791 21.2679
rtibia 11.9726
rfoot -15.4019 -25.1412
rtoes 0.419691
lfemur -0.0228063 -28.5685 -11.7541
ltibia 0.132395
lfoot -10.3053 32.1075
ltoes -7.50009
435
root 1.21852 17.4141 9.11368 6.98917 2.839 -6.87946
lowerback -0.724919 -0.354598 3.9961
upperback -9.7771 -0.0577373 2.71187
thorax -9.9655 -0.221303 0.665004
lowerneck -14.0687 -4.18742 -2.04612
upperneck 27.133 -6.85679 4.58375
head 11.3789 -2.76844 1.06603
rclavicle 6.53505e-015 -1.27222e-014
rhumerus -68.0982 7.10355 -95.5993
rradius 103.762
rwrist -4.38416
rhand 4.56853 -54.1559
rfingers 7.12502
rthumb 29.9583 -81.7507
lclavicle 6.53505e-015 -1.27222e-014
lhumerus -55.6656 -2.46965 90.9955
lradius 83.5611
lwrist 51.5313
lhand -23.8499 13.2217
lfingers 7.12502
lthumb 2.62227 43.1854
rfemur -6.28704 17.2124 21.2421
rtibia 12.0987
rfoot -15.391 -24.9388
rtoes 0.257139
lfemur -0.072172 -28.2669 -11.7734
ltibia 0.278535
lfoot -10.2412 31.829
ltoes -7.3326
